<?xml version="1.0" encoding="UTF-8" standalone="no"?>
<!-- Created with Inkscape (http://www.inkscape.org/) -->

<svg
   width="288.40906mm"
   height="109.89057mm"
   viewBox="0 0 288.40906 109.89057"
   version="1.1"
   id="svg5"
   xml:space="preserve"
   inkscape:version="1.2 (dc2aedaf03, 2022-05-15)"
   sodipodi:docname="logo_.svg"
   inkscape:export-filename="logo.png"
   inkscape:export-xdpi="100"
   inkscape:export-ydpi="100"
   xmlns:inkscape="http://www.inkscape.org/namespaces/inkscape"
   xmlns:sodipodi="http://sodipodi.sourceforge.net/DTD/sodipodi-0.dtd"
   xmlns:xlink="http://www.w3.org/1999/xlink"
   xmlns="http://www.w3.org/2000/svg"
   xmlns:svg="http://www.w3.org/2000/svg"><sodipodi:namedview
     id="namedview7"
     pagecolor="#ffffff"
     bordercolor="#000000"
     borderopacity="0.25"
     inkscape:showpageshadow="false"
     inkscape:pageopacity="0"
     inkscape:pagecheckerboard="false"
     inkscape:deskcolor="#ffffff"
     inkscape:document-units="mm"
     showgrid="false"
     inkscape:zoom="0.457453"
     inkscape:cx="161.76525"
     inkscape:cy="288.55423"
     inkscape:window-width="2560"
     inkscape:window-height="1369"
     inkscape:window-x="2552"
     inkscape:window-y="-8"
     inkscape:window-maximized="1"
     inkscape:current-layer="layer2"
     showborder="false"
     borderlayer="false"
     shape-rendering="auto"><inkscape:grid
       type="xygrid"
       id="grid18869"
       originx="-4.2954716"
       originy="-50.969093" /></sodipodi:namedview><defs
     id="defs2"><linearGradient
       id="linearGradient3144"
       inkscape:swatch="solid"><stop
         style="stop-color:#000000;stop-opacity:1;"
         offset="0"
         id="stop3142" /></linearGradient><rect
       x="-377.16236"
       y="91.199096"
       width="847.06957"
       height="312.24097"
       id="rect1129" /><linearGradient
       id="linearGradient25699"
       inkscape:swatch="solid"><stop
         style="stop-color:#000000;stop-opacity:1;"
         offset="0"
         id="stop25697" /></linearGradient><rect
       x="51.371395"
       y="147.55614"
       width="67.766525"
       height="60.115463"
       id="rect6067" /><rect
       x="380.36694"
       y="250.29893"
       width="101.64979"
       height="52.464405"
       id="rect5523" /><linearGradient
       id="linearGradient905"
       inkscape:swatch="solid"><stop
         style="stop-color:#000000;stop-opacity:1;"
         offset="0"
         id="stop903" /></linearGradient><linearGradient
       inkscape:collect="always"
       xlink:href="#linearGradient3144"
       id="linearGradient3146"
       x1="106.67185"
       y1="173.24884"
       x2="195.02084"
       y2="173.24884"
       gradientUnits="userSpaceOnUse" /></defs><g
     inkscape:label="Camada 1"
     inkscape:groupmode="layer"
     id="layer1"
     transform="translate(-4.2954712,-50.969093)" /><g
     inkscape:groupmode="layer"
     id="layer2"
     inkscape:label="Camada 2"
     transform="translate(-4.2954712,-50.969093)"><text
       xml:space="preserve"
       id="text5521"
       style="white-space:pre;shape-inside:url(#rect5523);display:inline;fill:none;stroke:#000000;stroke-opacity:1"
       transform="scale(0.26458333)" /><text
       xml:space="preserve"
       id="text6065"
       style="font-style:normal;font-variant:normal;font-weight:normal;font-stretch:normal;font-size:57.7111px;font-family:'Berlin Sans FB Demi';-inkscape-font-specification:'Berlin Sans FB Demi, Normal';font-variant-ligatures:normal;font-variant-caps:normal;font-variant-numeric:normal;font-variant-east-asian:normal;white-space:pre;shape-inside:url(#rect6067);display:inline;fill:#000000;fill-opacity:1;stroke:none;stroke-opacity:1"
       transform="scale(0.26458333)" /><path
       sodipodi:type="star"
       style="fill:#212529;fill-opacity:1;stroke:none;stroke-width:0.265112;stroke-linecap:butt;stroke-linejoin:round;stroke-dasharray:none;stroke-opacity:1"
       id="path22225"
       inkscape:flatsided="true"
       sodipodi:sides="5"
       sodipodi:cx="-621.39044"
       sodipodi:cy="-182.39819"
       sodipodi:r1="360.17242"
       sodipodi:r2="191.89107"
       sodipodi:arg1="-1.5793798"
       sodipodi:arg2="-0.95106131"
       inkscape:rounded="0"
       inkscape:randomized="0"
       d="m -624.48193,-542.55735 344.66788,245.92367 -127.37908,403.79323 -423.39248,3.63427 -134.29187,-401.54713 z"
       transform="matrix(0.26456426,0.0031768,-0.0031768,0.26456426,312.53448,165.0086)"
       inkscape:transform-center-x="-0.50286275"
       inkscape:transform-center-y="-5.9554278" /><g
       id="g5467"
       transform="matrix(0.24507595,0,0,0.24507595,85.760312,33.773398)"
       style="stroke:none;stroke-opacity:1"><path
         style="fill:#694b4b;stroke:none;stroke-opacity:1"
         d="m 88.222,159.632 c -82.142,0 -73.034,99.89 -72.659,172.277 0.014,2.734 1.446,5.198 3.788,6.61 9.102,5.487 34.1,18.316 68.871,18.316 34.771,0 59.769,-12.829 68.871,-18.316 2.341,-1.412 3.774,-3.876 3.788,-6.61 0.375,-72.387 9.483,-172.277 -72.659,-172.277 z"
         id="path5270" /><path
         style="fill:#5a4146;stroke:none;stroke-opacity:1"
         d="m 82.93,159.838 c -76.395,4.283 -67.733,101.295 -67.367,172.071 0.014,2.734 1.446,5.199 3.788,6.61 9.102,5.487 34.1,18.316 68.871,18.316 l 20.759,-145.308"
         id="path5272" /><path
         style="fill:#694b4b;stroke:none;stroke-opacity:1"
         d="m 88.222,159.632 c -46.706,0 -49.949,56.436 -49.949,56.436 26.921,-4.541 43.463,6.811 70.708,-4.541 L 88.222,356.835 c 34.772,0 59.769,-12.829 68.871,-18.316 2.341,-1.412 3.774,-3.876 3.788,-6.61 0.375,-72.387 9.483,-172.277 -72.659,-172.277 z"
         id="path5274" /><path
         style="fill:#785550;stroke:none;stroke-opacity:1"
         d="m 160.881,331.909 c 0.322,-62.201 7.037,-144.651 -43.183,-166.639 -0.876,4.55 -2.463,17.253 1.661,25.498 10.379,20.759 20.759,20.759 31.137,36.327 10.379,57.085 -19.831,117.674 -29.865,125.923 v 0 c 17.778,-4.228 30.522,-10.919 36.462,-14.499 2.341,-1.411 3.774,-3.876 3.788,-6.61 z"
         id="path5276" /><path
         style="fill:#e6af78;stroke:none;stroke-opacity:1"
         d="m 166.864,347.653 -46.307,-19.294 c -3.867,-1.611 -6.387,-5.39 -6.387,-9.581 V 306.237 H 62.275 v 12.541 c 0,4.191 -2.52,7.97 -6.387,9.581 L 9.581,347.653 C 3.779,350.071 0,355.74 0,362.025 v 20.759 c 0,5.732 4.647,10.379 10.379,10.379 h 155.686 c 5.732,0 10.379,-4.647 10.379,-10.379 v -20.759 c 0.001,-6.285 -3.778,-11.954 -9.58,-14.372 z"
         id="path5278" /><path
         style="fill:#eff2fa;stroke:none;stroke-opacity:1"
         d="M 166.864,347.653 122.091,328.997 88.222,343.615 54.353,328.998 9.581,347.654 C 3.779,350.071 0,355.74 0,362.025 v 20.759 c 0,5.732 4.647,10.379 10.379,10.379 h 155.686 c 5.732,0 10.379,-4.647 10.379,-10.379 v -20.759 c 0.001,-6.285 -3.778,-11.954 -9.58,-14.372 z"
         id="path5280" /><path
         style="fill:#d29b6e;stroke:none;stroke-opacity:1"
         d="M 114.17,306.237 H 62.275 v 12.541 c 0,4.191 -2.52,7.97 -6.387,9.581 l -7.232,3.014 c 55.345,14.112 65.514,-25.136 65.514,-25.136 z"
         id="path5282" /><g
         id="g5294"
         style="stroke:none;stroke-opacity:1">
	<path
   style="fill:#e4eaf6;stroke:none;stroke-opacity:1"
   d="M 25.294,367.729 4.464,351.16 C 1.673,354.014 0,357.874 0,362.025 v 20.759 c 0,5.732 4.647,10.379 10.379,10.379 h 20.759 v -13.276 c -0.001,-4.73 -2.15,-9.203 -5.844,-12.158 z"
   id="path5284" />
	<path
   style="fill:#e4eaf6;stroke:none;stroke-opacity:1"
   d="m 176.445,382.783 v -20.759 c 0,-4.119 -1.645,-7.952 -4.397,-10.8 l -20.898,16.504 c -3.693,2.954 -5.843,7.427 -5.843,12.157 v 13.275 h 20.759 c 5.732,0.002 10.379,-4.645 10.379,-10.377 z"
   id="path5286" />
	<path
   style="fill:#e4eaf6;stroke:none;stroke-opacity:1"
   d="m 89.001,382.783 h -1.557 c -2.436,0 -4.411,-1.975 -4.411,-4.411 v -34.745 h 10.379 v 34.744 c 0,2.437 -1.975,4.412 -4.411,4.412 z"
   id="path5288" />
	<path
   style="fill:#e4eaf6;stroke:none;stroke-opacity:1"
   d="M 88.222,343.616 58.52,321.34 c -1.907,-1.43 -4.623,-0.965 -5.945,1.018 l -5.869,8.803 18.21,25.494 c 1.384,1.938 4.112,2.317 5.972,0.829 z"
   id="path5290" />
	<path
   style="fill:#e4eaf6;stroke:none;stroke-opacity:1"
   d="m 88.222,343.616 29.702,-22.276 c 1.907,-1.43 4.623,-0.965 5.945,1.018 l 5.869,8.803 -18.21,25.494 c -1.384,1.938 -4.112,2.317 -5.972,0.829 z"
   id="path5292" />
</g><path
         style="fill:#f0c087;stroke:none;stroke-opacity:1"
         d="M 114.17,206.339 C 88.222,232.286 37.3,211.527 37.3,253.043 l 3.222,30.581 c 0.622,6.841 4.588,12.931 10.591,16.267 l 29.548,16.415 c 4.702,2.612 10.419,2.612 15.121,0 l 29.548,-16.415 c 6.005,-3.336 9.97,-9.427 10.591,-16.267 l 3.72,-36.32 c 0.265,-2.582 0.321,-5.179 0.234,-7.769 -1.94,-13.21 -20.516,-22.818 -25.705,-33.196 z"
         id="path5296" /><path
         style="fill:#e6af78;stroke:none;stroke-opacity:1"
         d="m 37.3,253.043 3.222,30.581 c 0.622,6.841 4.588,12.931 10.591,16.267 l 29.548,16.415 c 3.263,1.813 7.005,2.282 10.567,1.579 v 0 c 0,0 -14.897,-4.515 -23.764,-28.516 -2.716,-7.352 -6.487,-46.274 -3.243,-51.031 6.412,-9.402 42.165,-10.379 52.729,-27.822 -0.522,-0.647 -1.004,-1.296 -1.444,-1.945 -0.035,-0.052 -0.078,-0.105 -0.114,-0.158 -0.459,-0.69 -0.875,-1.382 -1.223,-2.077 -25.947,25.95 -76.869,5.191 -76.869,46.707 z"
         id="path5298" /><path
         style="fill:#e4eaf6;stroke:none;stroke-opacity:1"
         d="m 126.106,382.783 h -13.493 c -4.872,0 -8.822,3.95 -8.822,8.822 v 1.557 h 31.137 v -1.557 c 0,-4.873 -3.95,-8.822 -8.822,-8.822 z"
         id="path5300" /><polygon
         style="fill:#e6af78;stroke:none;stroke-opacity:1"
         points="442.78,323.524 442.78,295.022 369.487,295.022 369.487,323.524 406.133,356.099 "
         id="polygon5302" /><path
         style="fill:#eff2fa;stroke:none;stroke-opacity:1"
         d="m 499.443,336.857 -50.385,-11.855 c -0.761,-0.179 -1.461,-0.483 -2.115,-0.851 L 406.133,347.957 366.915,323 c -1.016,0.956 -2.275,1.666 -3.706,2.003 l -50.385,11.855 c -7.358,1.731 -12.557,8.296 -12.557,15.855 v 31.89 c 0,4.497 3.646,8.144 8.144,8.144 h 195.447 c 4.497,0 8.144,-3.646 8.144,-8.144 v -31.89 C 512,345.153 506.8,338.588 499.443,336.857 Z"
         id="path5304" /><path
         style="fill:#d29b6e;stroke:none;stroke-opacity:1"
         d="m 369.487,295.022 v 30.073 C 415.652,341.727 442.78,300.1 442.78,300.1 v -5.078 z"
         id="path5306" /><path
         style="fill:#f0c087;stroke:none;stroke-opacity:1"
         d="m 353.2,201.37 3.549,78.063 c 0.332,7.293 3.907,14.055 9.747,18.435 l 16.836,12.627 c 4.229,3.172 9.373,4.886 14.658,4.886 h 16.287 c 5.286,0 10.43,-1.715 14.658,-4.886 l 16.836,-12.627 c 5.84,-4.38 9.416,-11.143 9.747,-18.435 l 3.549,-78.063 z"
         id="path5308" /><path
         style="fill:#e6af78;stroke:none;stroke-opacity:1"
         d="m 393.918,217.657 c 16.287,0 40.718,-4.071 46.513,-16.287 H 353.2 l 3.548,78.063 c 0.332,7.293 3.907,14.055 9.747,18.435 l 16.836,12.627 c 4.229,3.172 9.373,4.886 14.658,4.886 h 8.144 c -8.144,0 -24.431,-16.287 -24.431,-36.647 0,-9.957 0,-36.646 0,-48.862 0,-4.071 4.072,-12.215 12.216,-12.215 z"
         id="path5310" /><path
         style="fill:#e4eaf6;stroke:none;stroke-opacity:1"
         d="m 482.107,366.319 26.385,-23.702 c 2.211,2.8 3.508,6.322 3.508,10.094 v 31.89 c 0,4.497 -3.646,8.144 -8.144,8.144 h -28.502 v -11.28 c 0,-5.778 2.454,-11.284 6.753,-15.146 z"
         id="path5312" /><polygon
         style="fill:#5b5d6e;stroke:none;stroke-opacity:1"
         points="413.768,356.099 416.313,392.745 395.953,392.745 398.499,356.099 "
         id="polygon5314" /><path
         style="fill:#515262;stroke:none;stroke-opacity:1"
         d="m 416.313,347.955 h -20.36 v 2.352 c 0,5.448 4.416,9.863 9.863,9.863 h 0.632 c 5.448,0 9.863,-4.416 9.863,-9.863 v -2.352 z"
         id="path5316" /><g
         id="g5322"
         style="stroke:none;stroke-opacity:1">
	<path
   style="fill:#e4eaf6;stroke:none;stroke-opacity:1"
   d="m 368.914,314.46 37.218,33.496 c 0,0 -10.423,5.261 -23.286,15.867 -2.653,2.188 -6.667,1.301 -8.09,-1.829 l -17.486,-38.468 5.532,-8.297 c 1.378,-2.067 4.267,-2.43 6.112,-0.769 z"
   id="path5318" />
	<path
   style="fill:#e4eaf6;stroke:none;stroke-opacity:1"
   d="m 443.351,314.46 -37.218,33.496 c 0,0 10.423,5.261 23.286,15.867 2.653,2.188 6.667,1.301 8.09,-1.829 l 17.486,-38.468 -5.532,-8.297 c -1.377,-2.067 -4.266,-2.43 -6.112,-0.769 z"
   id="path5320" />
</g><path
         style="fill:#785550;stroke:none;stroke-opacity:1"
         d="m 430.818,174.394 3.818,26.976 c 17.425,3.485 19.936,30.83 20.298,38.641 0.066,1.417 0.518,2.787 1.287,3.979 l 6.649,10.313 c 0,0 -2.276,-17.051 8.144,-28.502 -0.001,0 3.576,-67.694 -40.196,-51.407 z"
         id="path5324" /><path
         style="fill:#f0c087;stroke:none;stroke-opacity:1"
         d="m 466.954,252.562 -4.599,18.393 c -0.545,2.179 -2.503,3.708 -4.749,3.708 v 0 c -2.469,0 -4.551,-1.838 -4.858,-4.288 l -2.351,-18.812 c -0.629,-5.031 3.294,-9.474 8.363,-9.474 h 0.017 c 5.484,-0.001 9.507,5.153 8.177,10.473 z"
         id="path5326" /><path
         style="fill:#694b4b;stroke:none;stroke-opacity:1"
         d="m 357.101,167.099 6.023,4.114 c -27.23,20.105 -22.141,54.588 -22.141,54.588 8.144,8.144 8.144,28.502 8.144,28.502 l 8.144,-8.144 c 0,0 -3.143,-23.525 12.216,-32.574 14.251,-8.398 26.721,-4.071 39.445,-4.071 34.101,0 43.645,-12.852 41.991,-28.502 -0.856,-8.099 -13.238,-24.967 -44.789,-24.431 -12.735,0.216 -36.647,4.072 -49.033,10.518 z"
         id="path5328" /><path
         style="fill:#5a4146;stroke:none;stroke-opacity:1"
         d="m 354.726,205.951 c 0,0 -4.326,-17.051 8.398,-34.738 -27.23,20.105 -22.141,54.588 -22.141,54.588 8.144,8.144 8.144,28.502 8.144,28.502 l 8.144,-8.144 c 0,0 -3.143,-23.525 12.215,-32.574 14.251,-8.398 26.721,-4.071 39.445,-4.071 5.546,0 10.379,-0.372 14.684,-1.008 -26.262,0.881 -41.743,-19.011 -68.889,-2.555 z"
         id="path5330" /><path
         style="fill:#e6af78;stroke:none;stroke-opacity:1"
         d="m 345.311,252.562 4.599,18.393 c 0.545,2.179 2.503,3.708 4.75,3.708 v 0 c 2.469,0 4.551,-1.838 4.858,-4.288 l 2.351,-18.812 c 0.629,-5.031 -3.294,-9.474 -8.364,-9.474 h -0.017 c -5.482,-0.001 -9.507,5.153 -8.177,10.473 z"
         id="path5332" /><path
         style="fill:#e4eaf6;stroke:none;stroke-opacity:1"
         d="m 454.995,384.602 h -20.36 c -4.497,0 -8.144,3.646 -8.144,8.144 v 0 h 36.646 v 0 c 10e-4,-4.498 -3.645,-8.144 -8.142,-8.144 z"
         id="path5334" /><path
         style="fill:#694b4b;stroke:none;stroke-opacity:1"
         d="m 256.155,57.5 c -139.642,0 -124.158,169.814 -123.52,292.871 0.024,4.647 2.458,8.838 6.439,11.237 15.474,9.328 57.97,31.137 117.081,31.137 59.111,0 101.607,-21.809 117.081,-31.137 3.98,-2.4 6.415,-6.59 6.439,-11.237 C 380.313,227.313 395.797,57.5 256.155,57.5 Z"
         id="path5336" /><path
         style="fill:#5a4146;stroke:none;stroke-opacity:1"
         d="M 247.157,57.849 C 117.286,65.13 132.011,230.051 132.635,350.37 c 0.024,4.647 2.458,8.838 6.439,11.237 15.474,9.328 57.97,31.137 117.081,31.137 l 35.289,-247.023"
         id="path5338" /><path
         style="fill:#694b4b;stroke:none;stroke-opacity:1"
         d="m 256.155,57.5 c -79.4,0 -84.914,95.942 -84.914,95.942 45.765,-7.719 73.886,11.579 120.203,-7.719 l -35.289,247.023 c 59.111,0 101.607,-21.809 117.081,-31.137 3.98,-2.4 6.415,-6.59 6.439,-11.237 C 380.313,227.313 395.797,57.5 256.155,57.5 Z"
         id="path5340" /><path
         style="fill:#785550;stroke:none;stroke-opacity:1"
         d="m 379.675,350.372 c 0.548,-105.742 11.962,-245.906 -73.41,-283.286 -1.489,7.736 -4.185,29.331 2.823,43.348 17.645,35.289 35.289,35.289 52.933,61.756 17.644,97.045 -33.714,200.047 -50.771,214.068 v 0 c 30.222,-7.188 51.887,-18.562 61.985,-24.649 3.981,-2.4 6.416,-6.59 6.44,-11.237 z"
         id="path5342" /><path
         style="fill:#e6af78;stroke:none;stroke-opacity:1"
         d="m 389.846,377.137 -78.722,-32.801 c -6.575,-2.739 -10.858,-9.164 -10.858,-16.288 v -21.32 h -88.222 v 21.32 c 0,7.123 -4.283,13.548 -10.858,16.288 l -78.722,32.801 c -9.862,4.109 -16.287,13.746 -16.287,24.431 v 35.289 c 0,9.744 7.9,17.645 17.644,17.645 h 264.667 c 9.744,0 17.644,-7.9 17.644,-17.645 v -35.289 c 10e-4,-10.686 -6.424,-20.322 -16.286,-24.431 z"
         id="path5344" /><path
         style="fill:#b4e1fa;stroke:none;stroke-opacity:1"
         d="m 389.846,377.137 -76.114,-31.714 -57.577,24.849 -57.577,-24.849 -76.114,31.714 c -9.862,4.109 -16.287,13.746 -16.287,24.431 v 35.289 c 0,9.744 7.9,17.645 17.644,17.645 h 264.667 c 9.744,0 17.644,-7.9 17.644,-17.645 v -35.289 c 10e-4,-10.686 -6.424,-20.322 -16.286,-24.431 z"
         id="path5346" /><path
         style="fill:#d29b6e;stroke:none;stroke-opacity:1"
         d="m 300.266,306.728 h -88.222 v 21.32 c 0,7.123 -4.283,13.548 -10.858,16.288 l -12.295,5.124 c 94.087,23.989 111.375,-42.732 111.375,-42.732 z"
         id="path5348" /><g
         id="g5360"
         style="stroke:none;stroke-opacity:1">
	<path
   style="fill:#a0d2f0;stroke:none;stroke-opacity:1"
   d="m 149.178,411.265 -35.411,-28.167 c -4.744,4.852 -7.588,11.413 -7.588,18.469 v 35.289 c 0,9.744 7.9,17.644 17.644,17.644 h 35.289 v -22.568 c -0.002,-8.04 -3.656,-15.644 -9.934,-20.667 z"
   id="path5350" />
	<path
   style="fill:#a0d2f0;stroke:none;stroke-opacity:1"
   d="m 406.133,436.856 v -35.289 c 0,-7.002 -2.797,-13.518 -7.475,-18.359 l -35.526,28.057 c -6.278,5.023 -9.933,12.627 -9.933,20.667 V 454.5 h 35.289 c 9.745,10e-4 17.645,-7.899 17.645,-17.644 z"
   id="path5352" />
	<path
   style="fill:#a0d2f0;stroke:none;stroke-opacity:1"
   d="m 256.155,436.856 v 0 c -4.872,0 -8.822,-3.95 -8.822,-8.822 v -57.742 h 17.644 v 57.743 c 0,4.872 -3.95,8.821 -8.822,8.821 z"
   id="path5354" />
	<path
   style="fill:#a0d2f0;stroke:none;stroke-opacity:1"
   d="m 256.155,370.272 -50.494,-37.871 c -3.241,-2.431 -7.86,-1.64 -10.107,1.731 l -9.977,14.966 30.957,43.339 c 2.353,3.295 6.991,3.938 10.152,1.409 z"
   id="path5356" />
	<path
   style="fill:#a0d2f0;stroke:none;stroke-opacity:1"
   d="m 256.155,370.272 50.494,-37.871 c 3.241,-2.431 7.86,-1.64 10.107,1.731 l 9.977,14.966 -30.957,43.339 c -2.353,3.295 -6.991,3.938 -10.152,1.409 z"
   id="path5358" />
</g><path
         style="fill:#f0c087;stroke:none;stroke-opacity:1"
         d="m 300.266,136.9 c -44.111,44.111 -130.679,8.822 -130.679,79.4 l 5.479,51.989 c 1.056,11.629 7.799,21.983 18.006,27.653 l 50.231,27.906 c 7.994,4.441 17.713,4.441 25.707,0 l 50.231,-27.906 c 10.207,-5.672 16.949,-16.025 18.006,-27.653 l 6.324,-61.745 c 0.45,-4.388 0.546,-8.803 0.397,-13.208 -3.303,-22.457 -34.88,-38.792 -43.702,-56.436 z"
         id="path5362" /><path
         style="fill:#e6af78;stroke:none;stroke-opacity:1"
         d="m 169.587,216.3 5.479,51.989 c 1.056,11.629 7.799,21.983 18.006,27.653 l 50.231,27.906 c 5.547,3.081 11.908,3.88 17.963,2.685 v 0 c 0,0 -25.326,-7.674 -40.398,-48.477 -4.617,-12.5 -11.028,-78.665 -5.514,-86.752 10.899,-15.985 71.681,-17.645 89.641,-47.298 -0.888,-1.101 -1.707,-2.203 -2.455,-3.308 -0.061,-0.089 -0.133,-0.179 -0.193,-0.268 -0.78,-1.172 -1.488,-2.348 -2.079,-3.53 -44.113,44.111 -130.681,8.822 -130.681,79.4 z"
         id="path5364" /><path
         style="fill:#a0d2f0;stroke:none;stroke-opacity:1"
         d="m 326.733,436.856 h -35.289 c -4.872,0 -8.822,3.95 -8.822,8.822 v 8.822 h 52.933 v -8.822 c 0,-4.872 -3.95,-8.822 -8.822,-8.822 z"
         id="path5366" /><g
         id="g5368"
         style="stroke:none;stroke-opacity:1">
</g><g
         id="g5370"
         style="stroke:none;stroke-opacity:1">
</g><g
         id="g5372"
         style="stroke:none;stroke-opacity:1">
</g><g
         id="g5374"
         style="stroke:none;stroke-opacity:1">
</g><g
         id="g5376"
         style="stroke:none;stroke-opacity:1">
</g><g
         id="g5378"
         style="stroke:none;stroke-opacity:1">
</g><g
         id="g5380"
         style="stroke:none;stroke-opacity:1">
</g><g
         id="g5382"
         style="stroke:none;stroke-opacity:1">
</g><g
         id="g5384"
         style="stroke:none;stroke-opacity:1">
</g><g
         id="g5386"
         style="stroke:none;stroke-opacity:1">
</g><g
         id="g5388"
         style="stroke:none;stroke-opacity:1">
</g><g
         id="g5390"
         style="stroke:none;stroke-opacity:1">
</g><g
         id="g5392"
         style="stroke:none;stroke-opacity:1">
</g><g
         id="g5394"
         style="stroke:none;stroke-opacity:1">
</g><g
         id="g5396"
         style="stroke:none;stroke-opacity:1">
</g></g><text
       xml:space="preserve"
       style="font-style:normal;font-variant:normal;font-weight:normal;font-stretch:normal;font-size:39.1831px;font-family:'Palatino Linotype';-inkscape-font-specification:'Palatino Linotype, Normal';font-variant-ligatures:normal;font-variant-caps:normal;font-variant-numeric:normal;font-variant-east-asian:normal;fill:#ffffff;fill-opacity:1;stroke:#ffffff;stroke-width:0.949693;stroke-linecap:round;stroke-linejoin:round;stroke-opacity:1"
       x="100.04726"
       y="178.1718"
       id="text417"><tspan
         sodipodi:role="line"
         id="tspan415"
         x="100.04726"
         y="178.1718"
         style="font-style:normal;font-variant:normal;font-weight:normal;font-stretch:normal;font-size:39.1831px;font-family:'Palatino Linotype';-inkscape-font-specification:'Palatino Linotype, Normal';font-variant-ligatures:normal;font-variant-caps:normal;font-variant-numeric:normal;font-variant-east-asian:normal;fill:#ffffff;fill-opacity:1;stroke:#ffffff;stroke-width:0.949693;stroke-opacity:1">cBlog</tspan></text><text
       xml:space="preserve"
       transform="matrix(0.26458333,0,0,0.26458333,4.2954712,50.969093)"
       id="text1127"
       style="font-size:206.294px;font-family:Century;-inkscape-font-specification:'Century, Normal';white-space:pre;shape-inside:url(#rect1129);display:inline;fill:#ffffff;fill-opacity:1;stroke-width:5;stroke-linecap:round;stroke-linejoin:round" /></g></svg>
